# xmcd
#
# Track frame offsets:
# 150
# 10395
# 21647
# 38069
# 54213
# 79070
# 90857
# 117292
# 129579
#
# Disc length: 1939 seconds
#
#
# Revision: 0
# Processed by: cddbd v1.5.2PL0 Copyright (c) Steve Scherf et al.
# Submitted via: FreeRIP 2.95 
#
DISCID=66079109
DTITLE=Brenda Lee - Harmony
DYEAR=1995
DGENRE=Vocal
TTITLE0=I'm Sorry
TTITLE1=That's All You Gotta Do
TTITLE2=Coming On Strong
TTITLE3=Johnny One Time
TTITLE4=Hits Medley: Dum Dum-Fool Number One - Too Many Rivers - Jambalaya
TTITLE5=Silver Threads and Golden Needles
TTITLE6=Old Medley: Jambalaya - Is It True - My Whole World Is Falling Down - Sweet Nothin's - End of the World - All Alone Am I
TTITLE7=How Much Love
TTITLE8=Gospel Medley: Good Old Acappela  (Soul to Soul) - Old Landmarks - I'LL Fly Away (Some Glad Morning)
EXTD=
EXTT0=
EXTT1=
EXTT2=
EXTT3=
EXTT4=
EXTT5=
EXTT6=
EXTT7=
EXTT8=
PLAYORDER=
